<?xml version="1.0" encoding="iso-8859-1"?>
<!-- Uploaded to: SVG Repo, www.svgrepo.com, Generator: SVG Repo Mixer Tools -->
<svg fill="#000000" height="800px" width="800px" version="1.1" id="Layer_1" xmlns="http://www.w3.org/2000/svg" xmlns:xlink="http://www.w3.org/1999/xlink" 
	 viewBox="0 0 512 512" xml:space="preserve">
<g>
	<g>
		<path d="M504.204,7.797c-7.07-7.069-17.376-9.565-26.895-6.521L102.439,121.244c-8.9,2.849-15.528,9.97-17.729,19.052
			c-2.201,9.082,0.428,18.449,7.036,25.056L199.763,273.37l-49.008,49.01l-6.293-6.293c-3.984-3.982-10.441-3.982-14.426,0
			L13.621,432.5c-18.162,18.163-18.162,47.715,0,65.879C22.703,507.46,34.633,512,46.561,512c11.929,0,23.859-4.54,32.94-13.621
			l116.415-116.415c3.983-3.983,3.983-10.442,0-14.426l-6.293-6.293l49.009-49.009l108.017,108.017
			c5.071,5.071,11.766,7.799,18.712,7.799c2.104,0,4.233-0.251,6.345-0.763c9.081-2.201,16.204-8.829,19.052-17.729L510.724,34.692
			C513.77,25.172,511.272,14.866,504.204,7.797z M65.076,483.954c-10.207,10.21-26.82,10.209-37.029,0
			c-10.209-10.209-10.209-26.821,0-37.029L137.25,337.723l37.029,37.029L65.076,483.954z M175.196,346.819l-10.015-10.015
			l110.488-110.487c2.76-2.761,7.253-2.761,10.015,0c2.762,2.761,2.762,7.254,0,10.015L175.196,346.819z M491.295,28.475
			L371.327,403.343c-0.955,2.982-3.416,3.876-4.429,4.122c-1.017,0.247-3.611,0.577-5.825-1.636L253.056,297.812l47.054-47.054
			c10.715-10.716,10.715-28.151,0-38.866s-28.15-10.717-38.866,0l-47.054,47.054L106.173,150.929
			c-2.214-2.214-1.882-4.811-1.636-5.825c0.246-1.013,1.139-3.474,4.122-4.429L483.526,20.707c3.236-1.039,5.453,0.715,6.253,1.516
			C490.58,23.023,492.33,25.237,491.295,28.475z"/>
	</g>
</g>
<g>
	<g>
		<path d="M357.635,87.6c-1.722-5.363-7.463-8.318-12.828-6.598l-5.786,1.855c-5.364,1.721-8.318,7.463-6.598,12.827
			c1.388,4.329,5.396,7.088,9.711,7.088c1.031,0,2.082-0.158,3.117-0.49l5.786-1.855C356.401,98.707,359.355,92.964,357.635,87.6z"
			/>
	</g>
</g>
<g>
	<g>
		<path d="M320.599,99.475c-1.72-5.364-7.461-8.32-12.827-6.599l-163.189,52.32c-5.365,1.721-8.319,7.462-6.599,12.826
			c1.387,4.33,5.396,7.089,9.711,7.089c1.031,0,2.081-0.158,3.116-0.49L314,112.301C319.365,110.58,322.319,104.839,320.599,99.475z
			"/>
	</g>
</g>
</svg>